<svg version="1.1" viewBox="0.0 0.0 32.0 32.0" fill="none" stroke="none" stroke-linecap="square" stroke-miterlimit="10" xmlns:xlink="http://www.w3.org/1999/xlink" xmlns="http://www.w3.org/2000/svg"><clipPath id="p.0"><path d="m0 0l32.0 0l0 32.0l-32.0 0l0 -32.0z" clip-rule="nonzero"/></clipPath><g clip-path="url(#p.0)"><path fill="#000000" fill-opacity="0.0" d="m0 0l32.0 0l0 32.0l-32.0 0z" fill-rule="evenodd"/><path fill="#000000" d="m0.8136483 16.047245l0 0c0 -8.471266 6.8461657 -15.338584 15.291338 -15.338584l0 0c4.0555153 0 7.944927 1.6160246 10.812611 4.4925666c2.8676815 2.876542 4.4787292 6.7779713 4.4787292 10.846017l0 0c0 8.471264 -6.8461666 15.338581 -15.29134 15.338581l0 0c-8.445172 0 -15.291338 -6.867317 -15.291338 -15.338581z" fill-rule="evenodd"/><path stroke="#000000" stroke-width="1.0" stroke-linejoin="round" stroke-linecap="butt" d="m0.8136483 16.047245l0 0c0 -8.471266 6.8461657 -15.338584 15.291338 -15.338584l0 0c4.0555153 0 7.944927 1.6160246 10.812611 4.4925666c2.8676815 2.876542 4.4787292 6.7779713 4.4787292 10.846017l0 0c0 8.471264 -6.8461666 15.338581 -15.29134 15.338581l0 0c-8.445172 0 -15.291338 -6.867317 -15.291338 -15.338581z" fill-rule="evenodd"/><path fill="#ffffff" d="m11.979877 7.524743l3.8125 11.875001l3.796875 -11.875001l5.421875 0l0 17.0625l-4.125 0l0 -3.984375l0.390625 -8.156251l-4.125 12.140626l-2.71875 0l-4.140625 -12.156251l0.40625 8.171876l0 3.984375l-4.109375 0l0 -17.0625l5.390625 0z" fill-rule="nonzero"/></g></svg>