<svg xmlns="http://www.w3.org/2000/svg" xmlns:xlink="http://www.w3.org/1999/xlink" xmlns:lucid="lucid" width="1063.53" height="480"><g transform="translate(-140 -120)" lucid:page-tab-id="0_0"><path d="M679.92 518.78l38.82-19.44v-38.76l-38.82 19.38v38.82z" fill="#fff"/><path d="M641.17 499.32l38.77 19.42v-38.78l-38.77-19.35v38.72zM718.48 460.6l-38.53-19.26-38.53 19.25 38.53 19.25 38.53-19.26z" fill="#fff"/><path d="M679.94 478.7l36.3-18.1-.04-.02-36.26 18.12zM643.7 460.58h-.04l36.28 18.12-36.25-18.12z" fill="#fff"/><path d="M718.64 459.36L679.92 440l-38.72 19.36-1.2.64v40l38.8 19.36 1.2.64 1.2-.64L720 500v-40zm-1.2 39.36l-36.24 18.16v-36.32l36.32-18.08zm-38.72 18.16l-36.32-18.16v-36.24l36.32 18.08zm-35.04-56.32l36.24-18.08 36.32 18.08-36.32 18.16-36.24-18.16z" fill="#444"/><path d="M680.1 500.9l20.86-10.44v-20.8l-20.86 10.4v20.83zM658.93 490.46l20.85 10.43v-20.84l-20.85-10.4v20.8zM700.74 469.37L679.94 459l-20.8 10.37 20.8 10.4 20.8-10.4z" fill="#8cc64f"/><path d="M679.94 478.73l18.7-9.34-.02-.02-18.68 9.34zM661.26 469.38h-.02l18.7 9.35-18.68-9.35z" fill="#96bf3d"/><path d="M701.1 468.12l-21.14-10.54-21.2 10.54-1.2.62v22.46l21.14 10.57 1.26.63 1.2-.63 21.2-10.57v-22.46zm-1.2 21.82l-18.73 9.37v-18.73l18.72-9.32zm-21.2 9.37l-18.72-9.36v-18.7l18.72 9.33zm-17.42-29.93l18.68-9.32 18.67 9.32-18.67 9.37-18.73-9.32z" fill="#fff"/><use xlink:href="#a" transform="matrix(1,0,0,1,640,520) translate(9.549999999999997 14.4)"/><path d="M520 202c0-16.57 13.43-30 30-30h280c16.57 0 30 13.43 30 30v348c0 16.57-13.43 30-30 30H550c-16.57 0-30-13.43-30-30z" stroke="#474747" fill-opacity="0"/><path d="M560.84 142.95h41.32c10.84 0 10.84 0 10.84 10.84v41.35C613 206 613 206 602.16 206h-41.32C550 206 550 206 550 195.14V153.8c0-10.85 0-10.85 10.84-10.85z" fill="#9d5025"/><path d="M560.84 140h41.32C613 140 613 140 613 150.84v41.36c0 10.84 0 10.84-10.84 10.84h-41.32c-10.84 0-10.84 0-10.84-10.84v-41.36C550 140 550 140 560.84 140z" fill="#f58536"/><use xlink:href="#b" transform="matrix(1,0,0,1,520,550) translate(120.025 12.799999999999999)"/><use xlink:href="#c" transform="matrix(1,0,0,1,520,550) translate(151.97500000000002 12.799999999999999)"/><path d="M737.48 360H622.52c-1.32 0-2.52-1.14-2.52-2.53v-76.64c0-1.4 1.2-2.53 2.52-2.53h114.96c1.32 0 2.52 1.14 2.52 2.53v76.64c0 1.4-1.2 2.53-2.52 2.53zm-112.32-5.07h109.68v-71.48H625.16zM740 273.68h-5.16v-28.56H625.16v28.56H620v-31.12c0-1.4 1.2-2.56 2.52-2.56h114.96c1.32 0 2.52 1.15 2.52 2.56z" stroke="#fff" stroke-opacity="0" fill="#cd2264"/><path d="M622.4 243.95h114.87v112.08H622.4V243.95z" stroke="#fff" stroke-opacity="0" stroke-width=".4" fill="#fff" fill-opacity="0"/><use xlink:href="#d" transform="matrix(1,0,0,1,590,369) translate(27.549999999999997 14.4)"/><use xlink:href="#e" transform="matrix(1,0,0,1,590,369) translate(80.55 14.4)"/><use xlink:href="#f" transform="matrix(1,0,0,1,590,369) translate(120.45 14.4)"/><path d="M1060 300h120v120h-120V300z" stroke="#fff" stroke-opacity="0" stroke-width="2" fill="#8cc64f"/><path d="M1124.1 382h-2.1c-.87 0-1.58-.7-1.58-1.6v-35.6c0-.9.7-1.6 1.58-1.6h18.9c.5 0 .9.2 1.2.54l4.8 5.78-2.25 2.06-4.45-5.2h-16.66v32.55h.56z" stroke="#fff" stroke-opacity="0" stroke-width="2" fill="#fff"/><path d="M1153.3 387.8h-25.85c-.87 0-1.6-.7-1.6-1.6v-35.62c0-.9.73-1.6 1.6-1.6h19.95c.43 0 .78.17 1.1.48l5.9 5.97c.3.3.45.66.45 1.1v29.7c-.03.86-.7 1.52-1.54 1.56zm-24.3-3h22.77v-27.66l-5-5h-17.78z" stroke="#fff" stroke-opacity="0" stroke-width="2" fill="#fff"/><path d="M1153.3 359.65h-7.5c-.87 0-1.6-.72-1.6-1.6v-7.52h3.08v5.96h5.97zM1139 379.44h-1c-.82.02-1.52-.3-2.05-.92-.66-.98-.87-2.05-.66-3.22-.1-2.84-1.7-3.3-1.7-3.3-.82-.3-1.24-1.24-.93-2.06.17-.45.48-.76.93-.94.14 0 1.6-.6 1.6-3.4 0-1.68.78-3.55 2.66-3.62h1.05v3.1h-.5c-.02.17-.02.34 0 .52.1 1.87-.4 3.5-1.6 4.92 1.2 1.45 1.7 3.06 1.6 4.92.02.1.02.2 0 .28-.02.25-.02.46 0 .7h.7zM1143.3 379.44v-3.07h.6c.02-.2.02-.33 0-.52-.1-1.86.42-3.48 1.6-4.92-1.18-1.44-1.7-3.06-1.6-4.92v-.27c.03-.24.03-.44 0-.68h-.68v-3.08h1c.82-.02 1.52.3 2.05.93.66.98.87 2.04.66 3.2 0 2.7 1.6 3.2 1.6 3.3.7.22 1.14.86 1.1 1.6 0 .7-.45 1.28-1.13 1.45-.13 0-1.6.6-1.6 3.42 0 1.68-.8 3.55-2.66 3.6zM1111.57 343.52c-12.8 0-26.42-3.94-26.42-11.2s13.58-11.2 26.42-11.2c12.84 0 26.4 3.94 26.4 11.2s-13.62 11.2-26.4 11.2zm0-19.4c-13.74 0-23.35 4.3-23.35 8.18 0 3.85 9.6 8.13 23.35 8.13 13.73 0 23.35-4.28 23.35-8.13 0-3.88-9.62-8.18-23.35-8.18z" stroke="#fff" stroke-opacity="0" stroke-width="2" fill="#fff"/><path d="M1134.9 332.3h3.07v9.68h-3.07v-9.7zM1111.57 398.94c-12.8 0-26.42-3.93-26.42-11.2V332.3h3.07v55.38c0 3.87 9.6 8.2 23.35 8.2 13.73 0 23.35-4.33 23.35-8.2h3.06c0 7.33-13.63 11.26-26.4 11.26z" stroke="#fff" stroke-opacity="0" stroke-width="2" fill="#fff"/><path d="M1111.6 362.9c-15 0-26.34-4.8-26.34-11.2h3.1c0 3.85 9.6 8.16 23.25 8.16 2.46 0 4.5-.12 6.93-.4l.33 3.06c-2.55.28-4.7.4-7.25.38zM1111.63 381.94c-15.05 0-26.37-4.8-26.37-11.2h3.1c0 3.85 9.6 8.15 23.27 8.15 2.42 0 4.46-.12 6.88-.4l.35 3.1c-2.52.26-4.7.35-7.22.34z" stroke="#fff" stroke-opacity="0" stroke-width="2" fill="#fff"/><use xlink:href="#g" transform="matrix(1,0,0,1,1030,429) translate(27.574999999999996 14.4)"/><use xlink:href="#h" transform="matrix(1,0,0,1,1030,429) translate(72.525 14.4)"/><path d="M861.5 360h180" stroke="#000" stroke-width="2" fill="none"/><path d="M861.53 361h-1.03v-2h1.03z"/><path d="M1056.76 360l-14.26 4.64v-9.28z" stroke="#000" stroke-width="2"/><path d="M234.82 376.8h-69.7c-2.8 0-5.12-2.28-5.12-5.07v-45.65c0-2.8 2.32-5.08 5.12-5.08h69.7c2.8 0 5.1 2.3 5.1 5.08v45.6c0 2.84-2.23 5.12-5.02 5.12h-.08zm-69.62-52.4c-.96 0-1.76.73-1.76 1.68v45.6c0 .94.8 1.72 1.76 1.72h69.7c.96 0 1.67-.78 1.67-1.73v-45.6c0-.94-.7-1.67-1.67-1.67zM234 399h-68.05c-3.28-.02-5.92-2.65-5.92-5.92v-7.35c0-3.27 2.64-5.94 5.92-5.96H234c3.28 0 6 2.67 6 5.96v7.35c0 3.3-2.72 5.92-6 5.92zm-68.05-15.84c-1.36 0-2.48 1.17-2.48 2.57v7.35c0 1.4 1.12 2.52 2.48 2.54H234c1.44 0 2.56-1.16 2.56-2.58v-7.3c0-1.43-1.12-2.58-2.56-2.58z" stroke="#fff" stroke-opacity="0" fill="#232f3e"/><path d="M231.9 370.45h-63.8c-.95 0-1.7-.78-1.7-1.7V329c0-.92.75-1.7 1.7-1.7h63.8c.95 0 1.7.78 1.7 1.7v39.76c0 .9-.75 1.7-1.7 1.7zm-62.06-3.4h60.32V330.7h-60.32zM212.74 386.13h19.16c1.13 0 1.7.57 1.7 1.7V391c0 1.14-.57 1.7-1.7 1.7h-19.16c-1.12 0-1.7-.56-1.7-1.7v-3.17c0-1.13.58-1.7 1.7-1.7z" stroke="#fff" stroke-opacity="0" fill="#232f3e"/><use xlink:href="#i" transform="matrix(1,0,0,1,130,408) translate(47.075 14.4)"/><path d="M240.93 360H501" stroke="#000" stroke-width="2" fill="none"/><path d="M240.96 361h-1.03v-2h1.03z"/><path d="M516.26 360L502 364.64v-9.28z" stroke="#000" stroke-width="2"/><defs><path d="M190 0L58-211 59 0H30v-248h39L202-35l-2-213h31V0h-41" id="j"/><path d="M100-194c62-1 85 37 85 99 1 63-27 99-86 99S16-35 15-95c0-66 28-99 85-99zM99-20c44 1 53-31 53-75 0-43-8-75-51-75s-53 32-53 75 10 74 51 75" id="k"/><path d="M85-194c31 0 48 13 60 33l-1-100h32l1 261h-30c-2-10 0-23-3-31C134-8 116 4 85 4 32 4 16-35 15-94c0-66 23-100 70-100zm9 24c-40 0-46 34-46 75 0 40 6 74 45 74 42 0 51-32 51-76 0-42-9-74-50-73" id="l"/><path d="M100-194c63 0 86 42 84 106H49c0 40 14 67 53 68 26 1 43-12 49-29l28 8c-11 28-37 45-77 45C44 4 14-33 15-96c1-61 26-98 85-98zm52 81c6-60-76-77-97-28-3 7-6 17-6 28h103" id="m"/><path d="M33 0v-38h34V0H33" id="n"/><path d="M24-231v-30h32v30H24zM-9 49c24 4 33-6 33-30v-209h32V24c2 40-23 58-65 49V49" id="o"/><path d="M135-143c-3-34-86-38-87 0 15 53 115 12 119 90S17 21 10-45l28-5c4 36 97 45 98 0-10-56-113-15-118-90-4-57 82-63 122-42 12 7 21 19 24 35" id="p"/><g id="a"><use transform="matrix(0.05,0,0,0.05,0,0)" xlink:href="#j"/><use transform="matrix(0.05,0,0,0.05,12.950000000000001,0)" xlink:href="#k"/><use transform="matrix(0.05,0,0,0.05,22.950000000000003,0)" xlink:href="#l"/><use transform="matrix(0.05,0,0,0.05,32.95,0)" xlink:href="#m"/><use transform="matrix(0.05,0,0,0.05,42.95,0)" xlink:href="#n"/><use transform="matrix(0.05,0,0,0.05,47.95,0)" xlink:href="#o"/><use transform="matrix(0.05,0,0,0.05,51.900000000000006,0)" xlink:href="#p"/></g><path d="M137 0h-34L2-248h35l83 218 83-218h36" id="q"/><path d="M240 0l2-218c-23 76-54 145-80 218h-23L58-218 59 0H30v-248h44l77 211c21-75 51-140 76-211h43V0h-30" id="r"/><g id="b"><use transform="matrix(0.05,0,0,0.05,0,0)" xlink:href="#q"/><use transform="matrix(0.05,0,0,0.05,12,0)" xlink:href="#r"/></g><path d="M33 0v-248h34V0H33" id="s"/><path d="M117-194c89-4 53 116 60 194h-32v-121c0-31-8-49-39-48C34-167 62-67 57 0H25l-1-190h30c1 10-1 24 2 32 11-22 29-35 61-36" id="t"/><path d="M59-47c-2 24 18 29 38 22v24C64 9 27 4 27-40v-127H5v-23h24l9-43h21v43h35v23H59v120" id="u"/><path d="M141-36C126-15 110 5 73 4 37 3 15-17 15-53c-1-64 63-63 125-63 3-35-9-54-41-54-24 1-41 7-42 31l-33-3c5-37 33-52 76-52 45 0 72 20 72 64v82c-1 20 7 32 28 27v20c-31 9-61-2-59-35zM48-53c0 20 12 33 32 33 41-3 63-29 60-74-43 2-92-5-92 41" id="v"/><path d="M96-169c-40 0-48 33-48 73s9 75 48 75c24 0 41-14 43-38l32 2c-6 37-31 61-74 61-59 0-76-41-82-99-10-93 101-131 147-64 4 7 5 14 7 22l-32 3c-4-21-16-35-41-35" id="w"/><g id="c"><use transform="matrix(0.05,0,0,0.05,0,0)" xlink:href="#s"/><use transform="matrix(0.05,0,0,0.05,5,0)" xlink:href="#t"/><use transform="matrix(0.05,0,0,0.05,15,0)" xlink:href="#p"/><use transform="matrix(0.05,0,0,0.05,24,0)" xlink:href="#u"/><use transform="matrix(0.05,0,0,0.05,29,0)" xlink:href="#v"/><use transform="matrix(0.05,0,0,0.05,39,0)" xlink:href="#t"/><use transform="matrix(0.05,0,0,0.05,49,0)" xlink:href="#w"/><use transform="matrix(0.05,0,0,0.05,58,0)" xlink:href="#m"/></g><path d="M153-248C145-148 188 4 80 4 36 3 13-21 6-62l32-5c4 25 16 42 43 43 27 0 39-20 39-49v-147H72v-28h81" id="x"/><path d="M179-190L93 31C79 59 56 82 12 73V49c39 6 53-20 64-50L1-190h34L92-34l54-156h33" id="y"/><g id="d"><use transform="matrix(0.05,0,0,0.05,0,0)" xlink:href="#x"/><use transform="matrix(0.05,0,0,0.05,9,0)" xlink:href="#m"/><use transform="matrix(0.05,0,0,0.05,19,0)" xlink:href="#t"/><use transform="matrix(0.05,0,0,0.05,29,0)" xlink:href="#t"/><use transform="matrix(0.05,0,0,0.05,39,0)" xlink:href="#y"/></g><path d="M127-220V0H93v-220H8v-28h204v28h-85" id="z"/><path d="M84 4C-5 8 30-112 23-190h32v120c0 31 7 50 39 49 72-2 45-101 50-169h31l1 190h-30c-1-10 1-25-2-33-11 22-28 36-60 37" id="A"/><path d="M114-163C36-179 61-72 57 0H25l-1-190h30c1 12-1 29 2 39 6-27 23-49 58-41v29" id="B"/><g id="e"><use transform="matrix(0.05,0,0,0.05,0,0)" xlink:href="#z"/><use transform="matrix(0.05,0,0,0.05,8.950000000000001,0)" xlink:href="#k"/><use transform="matrix(0.05,0,0,0.05,18.950000000000003,0)" xlink:href="#A"/><use transform="matrix(0.05,0,0,0.05,28.950000000000003,0)" xlink:href="#B"/></g><path d="M205 0l-28-72H64L36 0H1l101-248h38L239 0h-34zm-38-99l-47-123c-12 45-31 82-46 123h93" id="C"/><path d="M115-194c55 1 70 41 70 98S169 2 115 4C84 4 66-9 55-30l1 105H24l-1-265h31l2 30c10-21 28-34 59-34zm-8 174c40 0 45-34 45-75s-6-73-45-74c-42 0-51 32-51 76 0 43 10 73 51 73" id="D"/><g id="f"><use transform="matrix(0.05,0,0,0.05,0,0)" xlink:href="#C"/><use transform="matrix(0.05,0,0,0.05,12,0)" xlink:href="#D"/><use transform="matrix(0.05,0,0,0.05,22,0)" xlink:href="#D"/></g><path d="M24 0v-261h32V0H24" id="E"/><g id="g"><use transform="matrix(0.05,0,0,0.05,0,0)" xlink:href="#C"/><use transform="matrix(0.05,0,0,0.05,12,0)" xlink:href="#u"/><use transform="matrix(0.05,0,0,0.05,17,0)" xlink:href="#E"/><use transform="matrix(0.05,0,0,0.05,20.95,0)" xlink:href="#v"/><use transform="matrix(0.05,0,0,0.05,30.950000000000003,0)" xlink:href="#p"/></g><path d="M177-190C167-65 218 103 67 71c-23-6-38-20-44-43l32-5c15 47 100 32 89-28v-30C133-14 115 1 83 1 29 1 15-40 15-95c0-56 16-97 71-98 29-1 48 16 59 35 1-10 0-23 2-32h30zM94-22c36 0 50-32 50-73 0-42-14-75-50-75-39 0-46 34-46 75s6 73 46 73" id="F"/><path d="M30-248c118-7 216 8 213 122C240-48 200 0 122 0H30v-248zM63-27c89 8 146-16 146-99s-60-101-146-95v194" id="G"/><path d="M160-131c35 5 61 23 61 61C221 17 115-2 30 0v-248c76 3 177-17 177 60 0 33-19 50-47 57zm-97-11c50-1 110 9 110-42 0-47-63-36-110-37v79zm0 115c55-2 124 14 124-45 0-56-70-42-124-44v89" id="H"/><g id="h"><use transform="matrix(0.05,0,0,0.05,0,0)" xlink:href="#r"/><use transform="matrix(0.05,0,0,0.05,14.950000000000001,0)" xlink:href="#k"/><use transform="matrix(0.05,0,0,0.05,24.950000000000003,0)" xlink:href="#t"/><use transform="matrix(0.05,0,0,0.05,34.95,0)" xlink:href="#F"/><use transform="matrix(0.05,0,0,0.05,44.95,0)" xlink:href="#k"/><use transform="matrix(0.05,0,0,0.05,54.95,0)" xlink:href="#G"/><use transform="matrix(0.05,0,0,0.05,67.9,0)" xlink:href="#H"/></g><path d="M212-179c-10-28-35-45-73-45-59 0-87 40-87 99 0 60 29 101 89 101 43 0 62-24 78-52l27 14C228-24 195 4 139 4 59 4 22-46 18-125c-6-104 99-153 187-111 19 9 31 26 39 46" id="I"/><path d="M24-231v-30h32v30H24zM24 0v-190h32V0H24" id="J"/><g id="i"><use transform="matrix(0.05,0,0,0.05,0,0)" xlink:href="#I"/><use transform="matrix(0.05,0,0,0.05,12.950000000000001,0)" xlink:href="#E"/><use transform="matrix(0.05,0,0,0.05,16.900000000000002,0)" xlink:href="#J"/><use transform="matrix(0.05,0,0,0.05,20.85,0)" xlink:href="#m"/><use transform="matrix(0.05,0,0,0.05,30.85,0)" xlink:href="#t"/><use transform="matrix(0.05,0,0,0.05,40.85,0)" xlink:href="#u"/></g></defs></g></svg>